# xmcd
#
# Track frame offsets:
#	150
#	12004
#	24189
#	37572
#	52371
#	67067
#	78003
#	89050
#	102779
#	113811
#	126461
#	140182
#	154781
#	167041
#	180639
#	192938
#	207981
#	219406
#	230221
#	243155
#
# Disc length: 3401 seconds
#
# Revision: 1
# Processed by: cddbd v1.5.2PL0 Copyright (c) Steve Scherf et al.
# Submitted via: EZCDAudioConverter 6.0.0.1
#
DISCID=160d4714
DTITLE=Bukka White - Fixin' to Die
DYEAR=2004
DGENRE=Blues
TTITLE0=District Attorney Blues
TTITLE1=Bukka's Jitterbug Swing
TTITLE2=Special Streamline
TTITLE3=Shake 'Em on Down
TTITLE4=Where Can I Change My Clothes
TTITLE5=Promise True and Grand
TTITLE6=Po' Boy
TTITLE7=The New Frisco Train
TTITLE8=Sic 'Em Dogs On
TTITLE9=High Fever Blues
TTITLE10=Pinebluff, Arkansas
TTITLE11=Strange Place Blues
TTITLE12=Patchman Farm Blues
TTITLE13=Sleepy Man Blues
TTITLE14=I Am in the Heavenly Way
TTITLE15=Black Train Blues
TTITLE16=Aberdeen, Mississippi Blues
TTITLE17=Good Gin Blues
TTITLE18=The Panama Limited
TTITLE19=Fixin' to Die
EXTD=
EXTT0=
EXTT1=
EXTT2=
EXTT3=
EXTT4=
EXTT5=
EXTT6=
EXTT7=
EXTT8=
EXTT9=
EXTT10=
EXTT11=
EXTT12=
EXTT13=
EXTT14=
EXTT15=
EXTT16=
EXTT17=
EXTT18=
EXTT19=
PLAYORDER=
